HIERARCHY
ROOT Hips
{
  OFFSET 46.4675 84.1771 -6.92114
  CHANNELS 6 Xposition Yposition Zposition Zrotation Xrotation Yrotation
  JOINT spine
  {
    OFFSET 0 6.24479 0.359107
    CHANNELS 3 Zrotation Xrotation Yrotation
    JOINT spine1
    {
      OFFSET 0 9.06941 0
      CHANNELS 3 Zrotation Xrotation Yrotation
      JOINT spine2
      {
        OFFSET 0 8.69014 0
        CHANNELS 3 Zrotation Xrotation Yrotation
        JOINT Neck
        {
          OFFSET 0 22.3112 1.06372
          CHANNELS 3 Zrotation Xrotation Yrotation
          JOINT Head
          {
            OFFSET 0 6.74081 0
            CHANNELS 3 Zrotation Xrotation Yrotation
            End Site
            {
              OFFSET 0 16.3165 -5.38097
            }
          }
        }
        JOINT RightShoulder
        {
          OFFSET -3.65916 9.38468 -0.509514
          CHANNELS 3 Zrotation Xrotation Yrotation
          JOINT RightArm
          {
            OFFSET 0 12.3089 0
            CHANNELS 3 Zrotation Xrotation Yrotation
            JOINT RightArmRoll
            {
              OFFSET 0 6.21375 0
              CHANNELS 3 Zrotation Xrotation Yrotation
              JOINT RightForeArm
              {
                OFFSET 0 18.0985 0
                CHANNELS 3 Zrotation Xrotation Yrotation
                JOINT RightForeArmRoll
                {
                  OFFSET 0 6.97279 0
                  CHANNELS 3 Zrotation Xrotation Yrotation
                  JOINT RightHand
                  {
                    OFFSET 0 13.9929 0
                    CHANNELS 3 Zrotation Xrotation Yrotation
                    End Site
                    {
                      OFFSET 0 0 0
                    }
                  }
                }
              }
            }
          }
        }
        JOINT LeftShoulder
        {
          OFFSET 3.65916 9.38468 -0.509514
          CHANNELS 3 Zrotation Xrotation Yrotation
          JOINT LeftArm
          {
            OFFSET 0 12.3089 0
            CHANNELS 3 Zrotation Xrotation Yrotation
            JOINT LeftArmRoll
            {
              OFFSET 0 6.21375 0
              CHANNELS 3 Zrotation Xrotation Yrotation
              JOINT LeftForeArm
              {
                OFFSET 0 18.0985 0
                CHANNELS 3 Zrotation Xrotation Yrotation
                JOINT LeftForeArmRoll
                {
                  OFFSET 0 6.97279 0
                  CHANNELS 3 Zrotation Xrotation Yrotation
                  JOINT LeftHand
                  {
                    OFFSET 0 13.9929 0
                    CHANNELS 3 Zrotation Xrotation Yrotation
                    End Site
                    {
                      OFFSET 0 0 0
                    }
                  }
                }
              }
            }
          }
        }
      }
    }
  }
  JOINT RightUpLeg
  {
    OFFSET -5.53515 -1.015 -0.851454
    CHANNELS 3 Zrotation Xrotation Yrotation
    JOINT RightUpLegRoll
    {
      OFFSET 0 16.4075 0
      CHANNELS 3 Zrotation Xrotation Yrotation
      JOINT RightLeg
      {
        OFFSET 0 -20.3181 0
        CHANNELS 3 Zrotation Xrotation Yrotation
        JOINT RightLegRoll
        {
          OFFSET 0 20.3846 0
          CHANNELS 3 Zrotation Xrotation Yrotation
          JOINT RightFoot
          {
            OFFSET 0 16.9668 0
            CHANNELS 3 Zrotation Xrotation Yrotation
            JOINT RightToeBase
            {
              OFFSET 0 14.1834 0
              CHANNELS 3 Zrotation Xrotation Yrotation
              End Site
              {
                OFFSET 0.0060118 6.8689 -0.791746
              }
            }
          }
        }
      }
    }
  }
  JOINT LeftUpLeg
  {
    OFFSET 5.53515 -1.015 -0.851454
    CHANNELS 3 Zrotation Xrotation Yrotation
    JOINT LeftUpLegRoll
    {
      OFFSET 0 16.4076 0
      CHANNELS 3 Zrotation Xrotation Yrotation
      JOINT LeftLeg
      {
        OFFSET 0 20.3181 0
        CHANNELS 3 Zrotation Xrotation Yrotation
        JOINT LeftLegRoll
        {
          OFFSET 0 20.5731 0
          CHANNELS 3 Zrotation Xrotation Yrotation
          JOINT LeftFoot
          {
            OFFSET 0 16.7783 0
            CHANNELS 3 Zrotation Xrotation Yrotation
            JOINT LeftToeBase
            {
              OFFSET 0 14.1834 0
              CHANNELS 3 Zrotation Xrotation Yrotation
              End Site
              {
                OFFSET -0.0269423 6.8689 -0.791746
              }
            }
          }
        }
      }
    }
  }
}
MOTION
Frames: 9
Frame Time: 0.00208333
43.0495 83.7129 -14.9003 0.280538 1.66602 0.465248 0.155222 -1.21802 -0.0259073 0.305038 1.57195 -0.0588414 0.306121 3.21701 -0.0639495 -1.34495 5.26724 -0.124356 -0.536544 1.89798 -0.517056 64.7821 -3.0593 -2.35456 111.502 9.89183 5.57296 2.18904e-006 8.97098e-007 1.14985e-006 11.7572 14.9919 -2.1551 5.63958e-006 -4.13891e-006 -3 8.02887 -4.95142 0.697672 -60.4889 -7.2254 4.52169 -117.314 6.64631 -12.6305 -1.27537e-005 4.92561e-007 -2.32081e-006 -3.56755 19.6904 1.18298 4.99944e-006 -1.05374e-006 3 -8.02984 -4.9515 -0.697673 -179.806 9.89553 -0.834219 180 7.01555e-015 178.957 178.322 16.6618 179.354 -3.62913e-006 -5.91964e-006 0.466442 -23.3682 71.6163 23.2703 8.13062 25.2361 -3.48524 179.584 2.96275 -0.358988 4.54188e-006 -4.6773e-006 -1.10038 -1.52846 -13.1231 0.624366 3.40932e-006 7.52221e-007 -0.385729 26.7854 74.4487 -27.3096 -8.15834 25.5674 3.49636 
43.0508 83.6728 -14.8918 0.27703 1.67908 0.47355 0.155715 -1.21827 -0.0255665 0.306415 1.57035 -0.0589978 0.307492 3.21541 -0.0641323 -1.32605 5.24465 -0.126372 -0.543537 1.90439 -0.514398 64.7901 -3.06238 -2.35689 111.507 9.91799 5.5506 2.18904e-006 8.97098e-007 1.14985e-006 11.7652 15.006 -2.15769 5.63958e-006 -4.13891e-006 -3 8.02887 -4.95142 0.697672 -60.4752 -7.23224 4.52534 -117.328 6.66841 -12.5925 -1.27537e-005 4.92561e-007 -2.32081e-006 -3.58535 19.7348 1.18838 4.99944e-006 -1.05374e-006 3 -8.02984 -4.9515 -0.697673 -179.796 9.8935 -0.853947 180 7.01555e-015 178.957 178.349 16.6851 179.346 -3.62913e-006 -5.91964e-006 0.466442 -23.3868 71.6522 23.312 8.13062 25.2361 -3.48524 179.585 2.99628 -0.355298 4.54188e-006 -4.6773e-006 -1.10038 -1.5246 -13.1866 0.62666 3.40932e-006 7.52221e-007 -0.388563 26.8323 74.4762 -27.3608 -8.15919 25.5799 3.49664 
43.043 83.6849 -14.8777 0.273394 1.69206 0.481878 0.156233 -1.21848 -0.0252153 0.307856 1.56874 -0.0591994 0.308927 3.2138 -0.0643617 -1.30718 5.22184 -0.128336 -0.550634 1.91109 -0.511697 64.7975 -3.06591 -2.35943 111.513 9.94447 5.5278 2.18904e-006 8.97098e-007 1.14985e-006 11.7735 15.0201 -2.16027 5.63958e-006 -4.13891e-006 -3 8.02887 -4.95142 0.697672 -60.4616 -7.2391 4.52901 -117.341 6.6904 -12.5544 -1.27537e-005 4.92561e-007 -2.32081e-006 -3.60337 19.7801 1.19386 4.99944e-006 -1.05374e-006 3 -8.02984 -4.9515 -0.697673 -179.785 9.89047 -0.8741 180 7.01555e-015 178.958 178.377 16.7078 179.338 -3.62913e-006 -5.91964e-006 0.466442 -23.405 71.6884 23.3541 8.13062 25.2361 -3.48524 179.587 3.0287 -0.351608 4.54188e-006 -4.6773e-006 -1.10038 -1.52069 -13.2489 0.628996 3.40932e-006 7.52221e-007 -0.391409 26.8796 74.5037 -27.4124 -8.16003 25.592 3.49689 
43.0443 83.674 -14.8758 0.269668 1.70498 0.490225 0.156767 -1.21866 -0.0248569 0.309341 1.5671 -0.0594326 0.310405 3.21216 -0.0646236 -1.28835 5.19888 -0.130262 -0.557804 1.91799 -0.508966 64.8046 -3.06975 -2.36211 111.519 9.97117 5.50467 2.18904e-006 8.97098e-007 1.14985e-006 11.7818 15.034 -2.16285 5.63958e-006 -4.13891e-006 -3 8.02887 -4.95142 0.697672 -60.4481 -7.24597 4.53267 -117.354 6.71231 -12.5162 -1.27537e-005 4.92561e-007 -2.32081e-006 -3.62153 19.826 1.19939 4.99944e-006 -1.05374e-006 3 -8.02984 -4.9515 -0.697673 -179.775 9.88674 -0.89455 180 7.01555e-015 178.958 178.405 16.73 179.329 -3.62913e-006 -5.91964e-006 0.466442 -23.4231 71.7248 23.3966 8.13062 25.2361 -3.48524 179.589 3.06032 -0.347917 4.54188e-006 -4.6773e-006 -1.10038 -1.51675 -13.3103 0.631362 3.40932e-006 7.52221e-007 -0.394265 26.9273 74.5312 -27.4644 -8.16084 25.6038 3.49714 
43.0455 83.6702 -14.8672 0.265887 1.71788 0.498583 0.157311 -1.21882 -0.0244944 0.31085 1.56547 -0.0596839 0.311909 3.21053 -0.0649042 -1.26953 5.17583 -0.132168 -0.565016 1.925 -0.506217 64.8116 -3.07378 -2.36487 111.525 9.998 5.48135 2.18904e-006 8.97098e-007 1.14985e-006 11.7902 15.0479 -2.16542 5.63958e-006 -4.13891e-006 -3 8.02887 -4.95142 0.697672 -60.4346 -7.25285 4.53635 -117.367 6.73418 -12.478 -1.27537e-005 4.92561e-007 -2.32081e-006 -3.63979 19.8722 1.20496 4.99944e-006 -1.05374e-006 3 -8.02984 -4.9515 -0.697673 -179.764 9.8826 -0.915169 180 7.01555e-015 178.958 178.434 16.752 179.321 -3.62913e-006 -5.91964e-006 0.466442 -23.4412 71.7613 23.4394 8.13062 25.2361 -3.48524 179.591 3.09149 -0.344225 4.54188e-006 -4.6773e-006 -1.10038 -1.51279 -13.3711 0.633745 3.40932e-006 7.52221e-007 -0.397125 26.9752 74.5587 -27.5167 -8.16165 25.6156 3.49738 
43.045 83.6707 -14.861 0.262091 1.73076 0.506944 0.157858 -1.21897 -0.0241308 0.312366 1.56383 -0.0599397 0.31342 3.20888 -0.0651895 -1.25072 5.15275 -0.134068 -0.572239 1.93204 -0.503465 64.8184 -3.07786 -2.36765 111.532 10.0249 5.45799 2.18904e-006 8.97098e-007 1.14985e-006 11.7986 15.0617 -2.16799 5.63958e-006 -4.13891e-006 -3 8.02887 -4.95142 0.697672 -60.4211 -7.25972 4.54002 -117.38 6.75603 -12.4398 -1.27537e-005 4.92561e-007 -2.32081e-006 -3.65807 19.9185 1.21054 4.99944e-006 -1.05374e-006 3 -8.02984 -4.9515 -0.697673 -179.753 9.87835 -0.93583 180 7.01555e-015 178.958 178.462 16.7739 179.312 -3.62913e-006 -5.91964e-006 0.466442 -23.4594 71.7978 23.4824 8.13062 25.2361 -3.48524 179.593 3.12255 -0.340534 4.54188e-006 -4.6773e-006 -1.10038 -1.50881 -13.4319 0.636135 3.40932e-006 7.52221e-007 -0.399987 27.0233 74.5863 -27.5692 -8.16246 25.6273 3.49761 
43.0459 83.6637 -14.8659 0.258316 1.74367 0.515299 0.158399 -1.21913 -0.0237693 0.31387 1.56219 -0.0601865 0.314917 3.20725 -0.0654654 -1.2319 5.12972 -0.135978 -0.579442 1.93902 -0.500721 64.8254 -3.08184 -2.3704 111.538 10.0517 5.43472 2.18904e-006 8.97098e-007 1.14985e-006 11.807 15.0756 -2.17056 5.63958e-006 -4.13891e-006 -3 8.02887 -4.95142 0.697672 -60.4075 -7.2666 4.54369 -117.393 6.77792 -12.4016 -1.27537e-005 4.92561e-007 -2.32081e-006 -3.67633 19.9646 1.21611 4.99944e-006 -1.05374e-006 3 -8.02984 -4.9515 -0.697673 -179.742 9.87431 -0.956406 180 7.01555e-015 178.959 178.491 16.7959 179.304 -3.62913e-006 -5.91964e-006 0.466442 -23.4778 71.8342 23.5255 8.13062 25.2361 -3.48524 179.595 3.15384 -0.336842 4.54188e-006 -4.6773e-006 -1.10038 -1.50484 -13.4928 0.638518 3.40932e-006 7.52221e-007 -0.402846 27.0716 74.6138 -27.6218 -8.16327 25.6391 3.49785 
43.0444 83.6652 -14.8578 0.254599 1.75661 0.523642 0.158929 -1.21932 -0.023413 0.315342 1.56056 -0.0604106 0.316383 3.20562 -0.065718 -1.21306 5.10681 -0.137915 -0.586595 1.94586 -0.497999 64.8326 -3.0856 -2.37304 111.544 10.0783 5.41167 2.18904e-006 8.97098e-007 1.14985e-006 11.8153 15.0896 -2.17314 5.63958e-006 -4.13891e-006 -3 8.02887 -4.95142 0.697672 -60.394 -7.27347 4.54736 -117.406 6.79987 -12.3635 -1.27537e-005 4.92561e-007 -2.32081e-006 -3.69449 20.0103 1.22165 4.99944e-006 -1.05374e-006 3 -8.02984 -4.9515 -0.697673 -179.732 9.87077 -0.976769 180 7.01555e-015 178.959 178.519 16.8183 179.295 -3.62913e-006 -5.91964e-006 0.466442 -23.4967 71.8705 23.5687 8.13062 25.2361 -3.48524 179.597 3.18568 -0.333151 4.54188e-006 -4.6773e-006 -1.10038 -1.50088 -13.5545 0.640884 3.40932e-006 7.52221e-007 -0.405699 27.1199 74.6412 -27.6745 -8.1641 25.651 3.4981 
43.044 83.6575 -14.8455 0.250978 1.76961 0.531963 0.159439 -1.21954 -0.0230649 0.316763 1.55895 -0.0605987 0.317799 3.20401 -0.0659334 -1.19419 5.08406 -0.139894 -0.593664 1.95248 -0.49531 64.8402 -3.08899 -2.37551 111.55 10.1047 5.38898 2.18904e-006 8.97098e-007 1.14985e-006 11.8234 15.1036 -2.17573 5.63958e-006 -4.13891e-006 -3 8.02887 -4.95142 0.697672 -60.3803 -7.28032 4.55102 -117.42 6.82191 -12.3254 -1.27537e-005 4.92561e-007 -2.32081e-006 -3.7125 20.0554 1.22713 4.99944e-006 -1.05374e-006 3 -8.02984 -4.9515 -0.697673 -179.721 9.86803 -0.996792 180 7.01555e-015 178.959 178.547 16.8411 179.287 -3.62913e-006 -5.91964e-006 0.466442 -23.5161 71.9065 23.6118 8.13062 25.2361 -3.48524 179.599 3.21843 -0.32946 4.54188e-006 -4.6773e-006 -1.10038 -1.49695 -13.6171 0.643219 3.40932e-006 7.52221e-007 -0.408542 27.1683 74.6686 -27.7271 -8.16494 25.6632 3.49837 
